<?xml version="1.0" standalone="no"?>
<!DOCTYPE svg PUBLIC "-//W3C//DTD SVG 20010904//EN"
 "http://www.w3.org/TR/2001/REC-SVG-20010904/DTD/svg10.dtd">
<svg version="1.0" xmlns="http://www.w3.org/2000/svg"
 width="700.000000pt" height="700.000000pt" viewBox="0 0 700.000000 700.000000"
 preserveAspectRatio="xMidYMid meet">
<metadata>
Created by potrace 1.14, written by Peter Selinger 2001-2017
</metadata>
<g transform="translate(0.000000,700.000000) scale(0.100000,-0.100000)"
fill="#000000" stroke="none">
<path d="M3308 6805 c-1 -2 -43 -6 -93 -9 -49 -4 -101 -8 -115 -10 -14 -3 -45
-7 -70 -10 -89 -12 -185 -31 -360 -71 -8 -2 -60 -17 -115 -33 -387 -116 -724
-288 -1069 -545 -365 -272 -718 -698 -938 -1132 -150 -295 -274 -674 -314
-958 -3 -18 -7 -45 -9 -62 -6 -44 -15 -119 -24 -210 -9 -82 -7 -524 2 -560 2
-11 8 -56 12 -100 4 -44 8 -82 10 -86 2 -3 6 -25 9 -50 20 -157 93 -434 164
-624 214 -570 579 -1069 1058 -1447 110 -87 384 -270 404 -270 3 0 16 -8 30
-18 36 -26 210 -111 324 -160 240 -102 588 -198 815 -225 30 -4 62 -8 71 -10
102 -20 533 -27 685 -12 44 5 100 10 125 13 156 15 457 84 632 143 853 289
1532 882 1930 1686 67 135 186 437 188 477 1 4 8 27 16 50 29 82 85 340 100
458 3 25 7 56 9 70 27 196 27 591 0 800 -3 19 -7 53 -10 75 -3 22 -7 52 -10
68 -3 15 -7 39 -10 54 -11 66 -28 144 -47 213 -11 41 -22 84 -24 95 -19 95
-119 355 -204 531 -428 884 -1208 1524 -2156 1769 -73 19 -154 37 -180 41 -27
3 -52 8 -55 10 -4 2 -24 6 -45 10 -22 3 -50 7 -63 9 -14 3 -52 7 -85 10 -34 3
-74 8 -91 11 -35 6 -491 14 -497 9z m367 -209 c116 -6 277 -24 365 -41 14 -3
51 -10 82 -15 125 -23 364 -95 518 -155 539 -212 1020 -586 1374 -1067 132
-181 277 -444 364 -663 68 -170 138 -400 157 -515 3 -19 8 -42 10 -50 4 -15 9
-38 21 -115 11 -67 18 -132 29 -255 5 -58 5 -370 0 -435 -7 -95 -16 -180 -20
-195 -2 -8 -6 -37 -10 -65 -3 -27 -8 -57 -10 -65 -2 -8 -6 -33 -10 -55 -3 -22
-10 -58 -16 -80 -6 -22 -12 -47 -14 -55 -14 -71 -81 -292 -104 -345 -5 -11
-24 -58 -42 -105 -45 -115 -162 -343 -239 -465 -133 -211 -245 -351 -437 -545
-315 -319 -688 -559 -1117 -720 -129 -48 -429 -131 -521 -144 -22 -3 -87 -12
-145 -20 -226 -32 -539 -36 -735 -11 -22 2 -62 7 -90 10 -27 3 -73 10 -101 16
-28 5 -64 12 -80 15 -16 3 -38 7 -49 8 -11 2 -65 16 -120 30 -407 105 -770
279 -1110 535 -161 121 -355 305 -492 466 -342 404 -578 894 -678 1412 -62
315 -74 677 -34 968 6 39 12 93 15 120 3 28 8 53 10 56 2 4 6 24 10 45 9 61
70 291 99 379 125 372 318 719 565 1016 48 58 292 305 350 355 381 327 881
581 1340 679 80 17 173 35 210 39 25 3 59 8 75 11 78 12 110 15 240 21 77 4
141 7 142 8 2 2 21 1 198 -8z"/>
<path d="M3115 6153 c-29 -4 -160 -28 -200 -37 -459 -101 -986 -401 -1345
-765 -119 -120 -158 -171 -294 -383 -226 -355 -384 -768 -421 -1105 -55 -490
8 -952 189 -1386 132 -319 363 -676 528 -819 68 -58 143 -118 150 -118 2 0 3
21 1 48 -7 137 -25 656 -26 762 0 25 -57 162 -167 405 -22 50 -51 124 -55 145
-1 3 -7 32 -14 65 -14 62 -10 190 7 207 28 28 1135 32 1180 4 6 -3 11 -48 12
-98 1 -51 4 -142 6 -203 3 -121 4 -1316 0 -1653 -1 -117 1 -216 4 -220 14 -22
182 -79 255 -88 22 -2 56 -6 75 -9 19 -2 58 -7 85 -10 69 -9 107 -15 127 -21
15 -4 17 8 20 123 2 70 4 1261 5 2646 l1 2517 -46 -1 c-26 -1 -60 -4 -77 -6z
m-448 -830 c14 -48 3 -1518 -10 -1540 -4 -6 -46 -9 -94 -7 -48 1 -205 5 -348
9 -288 7 -492 13 -605 20 -41 2 -88 4 -105 5 -56 1 -58 6 -30 126 14 60 34
143 45 184 12 41 23 82 25 90 27 102 124 333 172 412 13 21 23 40 23 43 0 11
77 124 129 190 182 231 425 393 710 475 85 24 79 24 88 -7z"/>
<path d="M3731 6054 c-2 -60 -5 -154 -6 -209 -10 -305 -4 -935 12 -1475 10
-332 10 -1573 0 -2110 -10 -511 -9 -1308 2 -1384 1 -9 44 -4 241 29 136 23
205 41 288 77 79 34 75 26 74 138 0 104 -20 1651 -27 2125 -6 399 -7 889 -1
905 3 8 7 31 10 51 7 49 16 69 30 69 15 0 211 -200 284 -290 70 -86 67 -82
142 -180 36 -47 73 -94 83 -104 9 -11 27 -35 40 -53 12 -18 27 -33 32 -33 12
0 40 24 170 144 163 151 204 188 264 234 l56 44 11 -29 c31 -74 57 -288 58
-468 1 -189 -4 -256 -28 -395 -34 -193 -64 -294 -129 -447 -125 -289 -133
-341 -112 -688 5 -77 9 -217 9 -312 l1 -172 35 32 c19 18 37 35 40 39 3 3 41
44 85 90 215 223 361 452 491 769 59 144 139 395 160 502 3 20 16 89 29 157
36 196 42 679 10 800 -2 8 -7 35 -10 60 -24 169 -87 395 -152 540 -31 69 -62
139 -68 155 -7 17 -27 63 -44 104 -25 59 -90 162 -143 226 -5 5 -38 48 -74 95
-36 47 -71 91 -78 98 -10 10 -32 -10 -114 -105 -160 -188 -428 -467 -436 -455
-16 27 -57 102 -102 187 -29 55 -73 138 -99 185 -107 197 -268 538 -340 720
-43 107 -87 216 -98 242 l-20 46 -126 50 c-69 27 -137 53 -151 56 -79 20 -172
37 -230 42 l-65 6 -4 -108z"/>
</g>
</svg>
